<?xml version="1.0" standalone="no"?>
<!DOCTYPE svg PUBLIC "-//W3C//DTD SVG 20010904//EN"
 "http://www.w3.org/TR/2001/REC-SVG-20010904/DTD/svg10.dtd">
<svg version="1.0" xmlns="http://www.w3.org/2000/svg"
 width="1587.000000pt" height="2245.000000pt" viewBox="0 0 1587.000000 2245.000000"
 preserveAspectRatio="xMidYMid meet">

<g transform="translate(0.000000,2245.000000) scale(0.100000,-0.100000)"
fill="#000000" stroke="none">
<path d="M0 11225 l0 -11225 7935 0 7935 0 0 11225 0 11225 -7935 0 -7935 0 0
-11225z m10100 9629 c0 -8 -4 -13 -9 -9 -19 11 -41 -27 -41 -71 0 -40 2 -44
25 -44 32 0 34 -27 3 -32 -21 -3 -23 -9 -26 -75 -4 -96 -22 -94 -22 2 0 60 -3
75 -15 75 -8 0 -15 7 -15 15 0 8 7 15 15 15 12 0 15 13 15 58 0 32 5 63 12 70
18 18 58 15 58 -4z m120 1 c0 -8 -3 -14 -7 -14 -28 5 -33 -4 -33 -56 0 -48 2
-55 20 -55 11 0 20 -7 20 -15 0 -8 -9 -15 -20 -15 -18 0 -20 -7 -20 -75 0 -60
-3 -75 -15 -75 -12 0 -15 15 -15 75 0 60 -3 75 -15 75 -8 0 -15 7 -15 15 0 8
7 15 15 15 11 0 15 12 15 51 0 28 5 59 10 70 13 23 60 26 60 4z m290 -145 c0
-136 -2 -160 -15 -160 -13 0 -15 24 -15 160 0 136 2 160 15 160 13 0 15 -24
15 -160z m-2528 133 c17 -15 18 -40 18 -364 l0 -348 118 -3 117 -3 5 -175 5
-175 108 -170 c59 -94 107 -176 107 -182 0 -6 -49 -91 -110 -189 l-110 -178 5
-140 c3 -78 7 -352 10 -611 19 -1722 136 -3142 371 -4535 53 -312 166 -882
224 -1130 22 -96 48 -205 57 -242 l15 -68 88 0 c62 0 91 -4 99 -14 9 -10 -1
-50 -44 -175 l-54 -162 35 -132 c147 -545 310 -1065 501 -1594 l88 -243 223 0
c203 0 223 -2 229 -17 4 -11 -33 -135 -95 -318 l-102 -300 71 -165 c211 -492
560 -1212 798 -1648 61 -111 111 -211 111 -221 0 -10 -7 -22 -16 -25 -9 -3
-296 -6 -639 -6 -525 0 -626 2 -638 14 -9 10 -16 49 -20 123 -34 645 -478
1226 -1097 1436 -197 67 -289 81 -525 81 -235 0 -324 -13 -524 -80 -412 -137
-763 -450 -951 -846 -91 -194 -132 -350 -152 -578 -6 -74 -16 -138 -22 -142
-13 -9 -1247 -11 -1270 -2 -9 3 -16 15 -16 26 0 10 50 110 110 221 238 434
566 1110 782 1607 l89 205 -102 296 c-55 163 -99 305 -97 315 3 18 19 19 228
24 l225 5 58 155 c174 467 383 1125 522 1647 l44 163 -55 162 c-40 122 -51
165 -43 175 8 9 38 13 99 13 l87 0 58 258 c416 1845 596 3640 617 6142 l3 335
-108 173 c-59 96 -107 179 -107 185 0 6 48 88 108 182 l107 170 5 175 5 175
118 3 117 3 0 346 c0 308 2 348 17 365 20 22 70 23 95 1z m1878 -48 c0 -12
-13 -15 -55 -15 l-55 0 0 -39 0 -40 47 -3 c66 -4 70 -28 4 -28 l-51 0 0 -45 0
-45 55 0 c42 0 55 -3 55 -15 0 -12 -14 -15 -70 -15 l-70 0 0 130 0 130 70 0
c56 0 70 -3 70 -15z m960 0 c0 -10 -11 -15 -35 -15 l-35 0 0 -115 c0 -96 -3
-115 -15 -115 -12 0 -15 19 -15 115 l0 115 -35 0 c-24 0 -35 5 -35 15 0 12 16
15 85 15 69 0 85 -3 85 -15z m-866 -26 c-8 -14 -34 -11 -34 4 0 8 3 17 7 20 9
9 34 -13 27 -24z m-4 -129 c0 -73 -3 -90 -15 -90 -12 0 -15 16 -15 83 0 46 3
87 7 90 18 18 23 0 23 -83z m458 55 c12 -14 22 -35 22 -46 0 -17 -7 -19 -75
-19 -57 0 -75 -3 -75 -14 0 -36 66 -51 99 -22 18 16 41 22 41 9 0 -4 -10 -17
-22 -30 -15 -16 -33 -23 -60 -23 -85 0 -122 100 -56 155 26 22 39 26 67 21 21
-3 45 -16 59 -31z m571 20 c56 -29 63 -106 14 -145 -76 -60 -178 19 -137 106
24 50 72 66 123 39z m123 -57 l24 -72 25 69 c13 38 29 70 36 72 6 2 21 -27 35
-69 l25 -73 22 67 c22 65 36 87 48 74 11 -10 -54 -171 -70 -174 -11 -2 -21 16
-37 64 l-23 67 -22 -62 c-13 -34 -25 -65 -29 -68 -15 -15 -33 11 -55 78 -13
41 -26 80 -28 87 -3 6 2 12 10 12 10 0 24 -25 39 -72z m377 58 c28 -15 56 -61
46 -77 -4 -5 -40 -9 -82 -9 -75 0 -75 0 -61 -22 20 -30 50 -39 79 -23 43 25
50 28 57 20 4 -4 -6 -18 -21 -31 -76 -66 -183 12 -141 102 24 50 72 66 123 40z
m123 3 c3 -9 10 -9 27 0 23 13 51 9 51 -7 0 -5 -14 -12 -30 -16 -36 -7 -50
-36 -50 -102 0 -24 -4 -44 -10 -44 -6 0 -10 37 -10 90 0 50 4 90 9 90 5 0 11
-5 13 -11z m-1569 -580 c12 -7 25 -17 29 -23 12 -17 9 -61 -3 -73 -9 -9 -6
-19 10 -39 28 -35 27 -69 -4 -99 -48 -49 -145 -17 -145 48 0 13 10 36 21 51
16 20 19 30 10 39 -12 12 -15 56 -3 73 8 12 43 33 55 34 5 0 18 -5 30 -11z
m199 -13 c14 -21 8 -55 -12 -66 -29 -16 -59 -3 -66 27 -12 46 52 77 78 39z
m568 -31 c0 -30 -4 -55 -10 -55 -5 0 -10 25 -10 55 0 30 5 55 10 55 6 0 10
-25 10 -55z m285 41 c40 -17 54 -54 36 -93 -7 -14 -32 -50 -58 -79 l-45 -54
61 0 c48 0 61 -3 61 -15 0 -12 -17 -15 -95 -15 l-96 0 76 85 c41 46 75 92 75
102 0 22 -29 53 -51 53 -10 0 -26 -11 -37 -25 -21 -27 -42 -33 -42 -12 0 17
20 42 45 55 26 15 29 15 70 -2z m249 -15 c34 -29 38 -60 16 -105 -26 -53 -103
-140 -119 -135 -7 3 1 20 24 47 l37 42 -27 0 c-32 0 -85 49 -85 79 0 79 94
124 154 72z m850 8 c29 -23 35 -69 11 -89 -13 -10 -12 -14 7 -30 31 -25 30
-86 -1 -111 -74 -60 -181 29 -123 102 16 19 17 26 6 48 -17 35 -8 68 25 86 35
19 44 18 75 -6z m120 -2 c0 -9 -1 -33 -2 -52 -3 -58 -22 -39 -22 21 0 40 3 55
13 52 6 -3 12 -12 11 -21z m96 -32 c0 -30 -4 -55 -9 -55 -10 0 -23 88 -15 101
14 23 24 4 24 -46z m-2550 -45 c0 -73 3 -90 15 -90 8 0 15 -5 15 -10 0 -6 -7
-13 -15 -16 -8 -4 -15 -17 -15 -30 0 -15 -6 -24 -15 -24 -9 0 -15 9 -15 25 0
24 -3 25 -60 25 -33 0 -60 3 -60 7 0 3 26 50 57 105 39 67 63 98 75 98 16 0
18 -10 18 -90z m720 75 c0 -12 -13 -15 -55 -15 -48 0 -55 -3 -55 -19 0 -11 -2
-26 -5 -34 -5 -10 1 -13 24 -9 52 7 81 -6 97 -44 17 -40 11 -68 -19 -101 -35
-39 -147 -24 -147 19 0 18 2 18 22 4 36 -25 94 -21 114 8 13 22 14 29 2 53
-12 26 -18 28 -68 28 -61 0 -56 -8 -52 85 l2 40 70 0 c56 0 70 -3 70 -15z
m130 -115 c0 -109 -2 -130 -15 -130 -12 0 -15 19 -15 115 0 108 -1 115 -20
115 -11 0 -20 7 -20 15 0 10 11 15 35 15 l35 0 0 -130z m860 0 c0 -109 -2
-130 -15 -130 -12 0 -15 19 -15 115 0 108 -1 115 -20 115 -11 0 -20 7 -20 15
0 10 11 15 35 15 l35 0 0 -130z m220 124 c0 -3 -16 -26 -36 -50 l-37 -44 32
-11 c83 -29 62 -149 -26 -149 -33 0 -83 36 -83 60 0 18 29 11 40 -10 12 -23
59 -27 78 -8 7 7 12 25 12 40 0 31 -28 48 -76 48 -32 0 -31 5 11 56 l35 43
-47 3 c-26 2 -48 9 -51 16 -3 9 16 12 72 12 42 0 76 -3 76 -6z m210 -84 c0
-73 3 -90 15 -90 8 0 15 -5 15 -10 0 -6 -7 -13 -15 -16 -8 -4 -15 -17 -15 -30
0 -15 -6 -24 -15 -24 -9 0 -15 9 -15 25 0 24 -3 25 -60 25 -33 0 -60 4 -60 9
0 6 25 53 56 105 40 68 61 96 75 96 17 0 19 -8 19 -90z m690 -17 l80 -106 0
106 c0 88 3 107 15 107 13 0 15 -21 15 -130 0 -108 -2 -130 -15 -130 -8 0 -51
48 -95 107 l-80 106 0 -106 c0 -88 -3 -107 -15 -107 -13 0 -15 21 -15 130 0
108 2 130 15 130 8 0 51 -48 95 -107z m-1225 -133 c0 -8 -10 -16 -22 -18 -18
-3 -23 2 -23 18 0 16 5 21 23 18 12 -2 22 -10 22 -18z m-1602 -452 c31 -37 22
-72 -38 -143 l-56 -65 61 0 c47 0 60 -3 60 -15 0 -12 -17 -15 -90 -15 -49 0
-90 4 -90 8 0 4 20 28 45 52 94 92 118 158 65 175 -24 8 -60 -11 -60 -30 0 -8
-9 -15 -20 -15 -24 0 -25 8 -4 38 32 46 93 50 127 10z m158 22 c29 -16 26 -67
-6 -82 -21 -9 -28 -8 -45 7 -26 24 -25 50 2 69 27 19 24 19 49 6z m569 -45 c0
-30 -4 -55 -9 -55 -10 0 -23 88 -15 101 14 23 24 4 24 -46z m540 19 c23 -22
25 -32 25 -103 0 -70 -3 -82 -24 -105 -36 -38 -91 -36 -125 5 -51 60 -34 198
28 225 37 16 63 10 96 -22z m273 25 c12 -7 25 -17 29 -23 12 -17 9 -61 -3 -73
-9 -9 -6 -19 10 -39 28 -35 27 -69 -4 -99 -48 -49 -145 -17 -145 48 0 13 10
36 21 51 16 20 19 30 10 39 -12 12 -15 56 -3 73 8 12 43 33 55 34 5 0 18 -5
30 -11z m251 -18 c34 -29 38 -60 16 -105 -26 -53 -103 -140 -119 -135 -7 3 1
20 24 47 l37 42 -27 0 c-32 0 -85 49 -85 79 0 79 94 124 154 72z m200 8 c29
-23 35 -69 11 -89 -13 -10 -12 -14 7 -30 31 -25 30 -86 -1 -111 -74 -60 -181
29 -123 102 16 19 17 26 6 48 -17 35 -8 68 25 86 35 19 44 18 75 -6z m336 -34
c0 -30 -4 -55 -10 -55 -5 0 -10 25 -10 55 0 30 5 55 10 55 6 0 10 -25 10 -55z
m98 5 c-4 -67 -22 -69 -26 -2 -2 42 0 52 13 52 13 0 15 -10 13 -50z m-2008
-90 c0 -109 -2 -130 -15 -130 -12 0 -15 19 -15 115 0 108 -1 115 -20 115 -11
0 -20 7 -20 15 0 10 11 15 35 15 l35 0 0 -130z m240 125 c0 -3 -30 -60 -67
-126 -59 -108 -85 -141 -98 -127 -2 2 24 54 59 116 l64 111 -66 3 c-41 2 -67
8 -70 16 -3 9 19 12 87 12 50 0 91 -2 91 -5z m380 -85 c0 -53 4 -90 10 -90 6
0 10 -7 10 -15 0 -8 -4 -15 -10 -15 -5 0 -10 -11 -10 -25 0 -16 -6 -25 -15
-25 -9 0 -15 9 -15 25 0 24 -3 25 -60 25 -36 0 -60 4 -60 11 0 9 55 110 96
177 8 12 23 22 34 22 18 0 20 -7 20 -90z m1180 0 c0 -73 3 -90 15 -90 8 0 15
-5 15 -10 0 -6 -7 -13 -15 -16 -8 -4 -15 -17 -15 -30 0 -15 -6 -24 -15 -24 -9
0 -15 9 -15 25 0 24 -3 25 -60 25 -33 0 -60 3 -60 7 0 3 26 50 57 105 39 67
63 98 75 98 16 0 18 -10 18 -90z m528 78 c-3 -8 -27 -14 -61 -16 l-57 -3 0
-39 0 -40 50 0 c38 0 50 -4 50 -15 0 -11 -12 -15 -50 -15 l-50 0 0 -45 0 -44
57 -3 c34 -2 58 -8 61 -15 3 -10 -16 -13 -72 -13 l-76 0 0 130 0 130 76 0 c56
0 75 -3 72 -12z m-1353 -228 c0 -8 -10 -16 -22 -18 -18 -3 -23 2 -23 18 0 16
5 21 23 18 12 -2 22 -10 22 -18z m-8810 -14445 c49 -23 135 -105 135 -127 0
-4 -24 -20 -53 -34 l-53 -26 -35 35 c-114 114 -304 38 -304 -123 0 -160 183
-236 302 -124 l38 36 52 -26 c29 -14 53 -30 53 -34 0 -23 -86 -104 -138 -129
-117 -58 -270 -28 -357 69 -57 63 -79 120 -79 208 0 85 21 143 73 203 92 104
241 133 366 72z m741 6 c62 -28 118 -82 152 -146 23 -43 27 -62 27 -135 0 -73
-4 -92 -27 -135 -34 -64 -90 -118 -153 -147 -72 -33 -181 -32 -250 2 -183 91
-234 311 -110 475 32 40 111 92 163 105 55 14 143 5 198 -19z m7732 -1 c48
-21 142 -106 142 -129 0 -6 -23 -22 -51 -36 l-50 -26 -38 34 c-124 112 -301
40 -301 -123 0 -159 174 -234 296 -128 54 48 47 58 -46 58 l-80 0 0 50 0 50
156 0 156 0 -4 -58 c-7 -104 -83 -209 -182 -254 -75 -33 -182 -31 -253 5 -115
59 -173 152 -173 277 0 58 6 87 24 126 39 83 121 151 211 175 48 13 137 3 193
-21z m-7113 -172 c48 -106 91 -199 95 -206 4 -9 42 63 101 192 l94 206 73 0
72 0 0 -300 0 -300 -65 0 -65 0 0 171 c0 93 -3 168 -8 166 -4 -3 -41 -80 -82
-172 l-74 -166 -40 3 -40 3 -78 170 -78 170 0 -172 0 -173 -70 0 -70 0 0 300
0 300 74 0 73 0 88 -192z m991 173 c131 -60 138 -251 11 -318 -20 -10 -65 -18
-119 -21 l-88 -4 0 -119 0 -119 -65 0 -65 0 0 300 0 300 143 0 c117 0 149 -4
183 -19z m655 -231 c49 -135 98 -269 108 -297 l20 -53 -73 0 -72 0 -18 55 -17
55 -113 0 -112 0 -18 -55 -17 -55 -70 0 c-68 0 -70 1 -63 23 3 12 52 147 107
300 l100 278 75 -3 75 -3 88 -245z m563 53 l146 -197 0 197 0 197 65 0 65 0 0
-300 0 -300 -67 0 -68 1 -145 197 -145 197 -3 -198 -2 -197 -65 0 -65 0 0 300
0 300 69 0 69 0 146 -197z m649 96 l64 -101 63 101 63 101 74 0 c57 0 72 -3
67 -12 -4 -7 -52 -79 -106 -160 l-98 -148 0 -140 0 -140 -65 0 -65 0 0 140 0
139 -105 161 -105 160 74 0 74 0 65 -101z m1072 -91 c48 -106 91 -199 95 -206
4 -9 42 63 101 192 l94 206 73 0 72 0 0 -300 0 -300 -65 0 -65 0 0 171 c0 93
-3 168 -8 166 -4 -3 -41 -80 -82 -172 l-74 -166 -40 3 -40 3 -78 170 -78 170
0 -172 0 -173 -70 0 -70 0 0 300 0 300 74 0 73 0 88 -192z m1055 -95 c57 -159
105 -294 108 -300 3 -10 -14 -13 -66 -13 l-71 0 -17 55 -18 56 -115 -3 -116
-3 -14 -52 -14 -53 -73 0 -73 0 35 98 c20 53 67 184 105 291 39 107 72 198 75
203 3 4 38 8 78 8 l73 0 103 -287z m550 90 l145 -197 3 197 2 197 65 0 65 0 0
-300 0 -300 -69 0 -69 0 -146 197 -146 198 0 -198 0 -197 -65 0 -65 0 0 300 0
300 68 0 67 0 145 -197z m900 -90 c57 -159 105 -294 108 -300 3 -10 -14 -13
-66 -13 l-71 0 -17 55 -18 56 -115 -3 -116 -3 -14 -52 -14 -53 -73 0 -73 0 35
98 c20 53 67 184 105 291 39 107 72 198 75 203 3 4 38 8 78 8 l73 0 103 -287z
m1306 78 l93 -205 41 90 c22 49 64 141 94 204 l53 115 71 3 72 3 0 -301 0
-300 -65 0 -65 0 -2 172 -3 173 -79 -173 -79 -173 -40 3 -40 3 -76 170 -76
169 -3 -172 -2 -172 -65 0 -65 0 0 300 0 301 71 -3 72 -3 93 -204z m1014 149
l0 -60 -115 0 -115 0 0 -60 0 -60 100 0 100 0 0 -60 0 -60 -100 0 -100 0 0
-60 0 -60 115 0 115 0 0 -60 0 -60 -180 0 -180 0 0 300 0 300 180 0 180 0 0
-60z m494 -137 l146 -197 0 197 0 197 65 0 65 0 0 -300 0 -300 -67 0 -68 1
-145 197 -145 197 -3 -198 -2 -197 -65 0 -65 0 0 300 0 300 69 0 69 0 146
-197z m876 137 l0 -60 -75 0 -75 0 0 -240 0 -240 -65 0 -65 0 0 240 0 239 -77
3 -78 3 -3 58 -3 57 221 0 220 0 0 -60z m-5009 -2571 c20 -10 49 -33 63 -50
25 -29 26 -34 12 -48 -14 -14 -19 -12 -53 21 -91 89 -227 68 -283 -43 -66
-128 43 -276 187 -254 33 5 57 17 90 47 41 39 45 40 60 25 16 -16 15 -19 -12
-48 -98 -102 -267 -95 -346 14 -141 195 68 445 282 336z m-2291 -4 c0 -25 0
-25 -95 -25 l-95 0 0 -75 0 -75 85 0 c78 0 85 -2 85 -20 0 -18 -7 -20 -85 -20
l-85 0 0 -100 0 -100 -25 0 -25 0 0 220 0 220 120 0 120 0 0 -25z m460 10 c64
-33 82 -136 32 -183 -15 -15 -36 -32 -47 -38 -17 -10 -14 -17 43 -105 l61 -94
-27 -3 c-14 -2 -28 0 -29 5 -2 4 -30 50 -63 101 -59 91 -60 92 -100 92 l-40 0
0 -100 0 -100 -25 0 -25 0 0 220 0 220 95 0 c66 0 105 -5 125 -15z m564 -197
c42 -117 76 -216 76 -220 0 -5 -11 -8 -24 -8 -20 0 -27 8 -41 50 l-17 50 -98
0 -98 0 -17 -50 c-14 -42 -21 -50 -41 -50 -13 0 -24 3 -24 7 0 5 34 104 76
220 74 206 78 213 104 213 26 0 30 -7 104 -212z m487 35 l134 -177 3 177 2
177 25 0 25 0 0 -220 0 -220 -25 0 c-20 0 -48 31 -157 177 l-133 176 -3 -176
-2 -177 -25 0 -25 0 0 220 0 220 23 0 c19 0 51 -36 158 -177z m1369 152 c0
-25 0 -25 -95 -25 l-95 0 0 -75 0 -75 85 0 c78 0 85 -2 85 -20 0 -18 -7 -20
-85 -20 l-85 0 0 -75 0 -75 95 0 c95 0 95 0 95 -25 l0 -25 -120 0 -120 0 0
220 0 220 120 0 120 0 0 -25z"/>
<path d="M7821 18945 l1 -95 114 0 114 0 0 95 0 95 -115 0 -115 0 1 -95z"/>
<path d="M7820 18273 c0 -550 -33 -1701 -70 -2483 -44 -911 -110 -1873 -188
-2753 -10 -109 -16 -200 -13 -202 6 -6 766 -6 772 0 3 2 -3 93 -13 202 -152
1708 -258 3846 -258 5231 l0 272 -115 0 -115 0 0 -267z"/>
<path d="M7507 12453 c-4 -38 -7 -80 -7 -95 l0 -28 435 0 435 0 0 28 c0 15 -3
57 -7 95 l-6 67 -422 0 -422 0 -6 -67z"/>
<path d="M7446 11923 c-2 -10 -8 -53 -12 -95 l-6 -78 507 0 508 0 -8 81 c-3
45 -9 88 -12 95 -4 12 -88 14 -488 14 -452 0 -484 -1 -489 -17z"/>
<path d="M7385 11428 c-2 -7 -11 -65 -20 -128 -20 -145 -89 -563 -113 -692
l-19 -98 702 0 703 0 -14 73 c-24 124 -112 657 -125 760 l-12 97 -549 0 c-430
0 -550 -3 -553 -12z"/>
<path d="M7155 10123 c-9 -43 -19 -86 -22 -95 -4 -17 39 -18 801 -18 443 0
806 2 806 4 0 4 -6 31 -35 164 l-5 22 -765 0 -764 0 -16 -77z"/>
<path d="M10295 20680 c-18 -20 -17 -20 38 -20 58 0 72 11 38 30 -30 15 -56
12 -76 -10z"/>
<path d="M10896 20685 c-48 -49 -15 -114 54 -106 21 3 50 39 50 62 0 46 -71
76 -104 44z"/>
<path d="M11394 20683 c-17 -17 -15 -18 35 -21 61 -4 74 3 47 24 -27 19 -61
18 -82 -3z"/>
<path d="M9976 20104 c-19 -18 -19 -20 -6 -45 6 -11 21 -19 35 -19 20 0 45 24
45 44 0 10 -32 36 -45 36 -7 0 -21 -7 -29 -16z"/>
<path d="M9965 19990 c-37 -41 11 -104 61 -81 50 23 34 101 -21 101 -12 0 -30
-9 -40 -20z"/>
<path d="M10174 20115 c-9 -23 3 -45 25 -45 23 0 35 28 20 46 -15 18 -38 18
-45 -1z"/>
<path d="M11245 20108 c-26 -15 -35 -28 -35 -54 0 -49 60 -79 97 -47 35 30 38
59 9 88 -28 28 -41 30 -71 13z"/>
<path d="M12116 20104 c-20 -19 -20 -38 -2 -54 23 -19 61 -8 64 18 7 44 -32
67 -62 36z"/>
<path d="M12106 19994 c-24 -23 -20 -61 9 -80 31 -20 63 -10 76 23 20 53 -45
97 -85 57z"/>
<path d="M9777 20030 l-38 -70 40 0 41 0 0 70 c0 39 -1 70 -2 70 -2 0 -20 -32
-41 -70z"/>
<path d="M11920 20038 c-19 -35 -36 -66 -38 -70 -2 -5 15 -8 37 -8 l41 0 0 70
c0 39 -1 70 -3 70 -1 0 -18 -28 -37 -62z"/>
<path d="M9964 19445 c-9 -23 3 -45 25 -45 25 0 34 14 26 40 -7 23 -43 27 -51
5z"/>
<path d="M11021 19426 c-18 -19 -23 -36 -23 -80 -1 -70 20 -106 62 -106 41 0
60 32 60 103 0 48 -4 62 -25 82 -30 31 -46 31 -74 1z"/>
<path d="M11336 19434 c-19 -18 -19 -20 -6 -45 6 -11 21 -19 35 -19 20 0 45
24 45 44 0 10 -32 36 -45 36 -7 0 -21 -7 -29 -16z"/>
<path d="M11325 19320 c-37 -41 11 -104 61 -81 50 23 34 101 -21 101 -12 0
-30 -9 -40 -20z"/>
<path d="M11555 19438 c-26 -15 -35 -28 -35 -54 0 -49 60 -79 97 -47 35 30 38
59 9 88 -28 28 -41 30 -71 13z"/>
<path d="M11776 19434 c-31 -30 -8 -69 36 -62 26 3 37 41 18 64 -16 18 -35 18
-54 -2z"/>
<path d="M11766 19324 c-24 -23 -20 -61 9 -80 31 -20 63 -10 76 23 20 53 -45
97 -85 57z"/>
<path d="M10818 19368 c-21 -36 -38 -69 -38 -72 0 -13 71 -5 76 8 3 7 4 40 2
72 l-3 59 -37 -67z"/>
<path d="M11997 19360 l-38 -70 40 0 41 0 0 70 c0 39 -1 70 -2 70 -2 0 -20
-32 -41 -70z"/>
<path d="M2995 4679 c-132 -41 -157 -237 -41 -317 127 -87 300 29 272 182 -19
103 -128 167 -231 135z"/>
<path d="M4590 4625 l0 -65 56 0 c80 0 114 21 114 71 0 43 -28 59 -103 59
l-67 0 0 -65z"/>
<path d="M5241 4557 c-19 -56 -36 -108 -38 -114 -4 -10 14 -13 71 -13 42 0 76
4 76 8 0 9 -68 213 -73 218 -2 2 -18 -43 -36 -99z"/>
<path d="M8598 4655 c-6 -11 -68 -210 -68 -219 0 -3 32 -6 70 -6 60 0 70 2 70
18 -1 29 -66 217 -72 207z"/>
<path d="M10048 4655 c-6 -11 -68 -210 -68 -219 0 -3 32 -6 70 -6 60 0 70 2
70 18 -1 29 -66 217 -72 207z"/>
<path d="M6910 2074 l0 -76 70 4 c82 4 113 26 113 79 0 50 -31 69 -114 69
l-69 0 0 -76z"/>
<path d="M7500 2028 c-19 -55 -36 -105 -38 -110 -2 -4 33 -8 78 -8 62 0 81 3
77 13 -2 6 -19 56 -38 109 -19 54 -36 98 -39 98 -3 0 -21 -46 -40 -102z"/>
</g>
</svg>
