<?xml version="1.0" standalone="no"?>
<!DOCTYPE svg PUBLIC "-//W3C//DTD SVG 20010904//EN"
 "http://www.w3.org/TR/2001/REC-SVG-20010904/DTD/svg10.dtd">
<svg version="1.0" xmlns="http://www.w3.org/2000/svg"
 width="512.000000pt" height="512.000000pt" viewBox="0 0 512.000000 512.000000"
 preserveAspectRatio="xMidYMid meet">

<g transform="translate(0.000000,512.000000) scale(0.100000,-0.100000)"
fill="#000000" stroke="none">
<path d="M2280 5039 c-485 -56 -945 -248 -1330 -555 -107 -86 -295 -273 -383
-384 -562 -700 -717 -1631 -411 -2476 183 -508 533 -951 993 -1258 62 -42 117
-76 121 -76 4 0 57 42 117 94 118 102 243 238 333 364 53 75 150 249 150 270
0 5 -31 30 -70 56 -90 59 -123 110 -123 186 0 63 19 106 63 143 40 34 89 47
181 47 l75 0 37 177 c118 575 198 1205 242 1903 21 342 36 915 25 945 -18 48
-41 206 -34 241 4 19 21 57 40 84 27 39 36 67 49 144 18 112 17 106 8 105 -5
-1 -42 -5 -83 -10z"/>
<path d="M2750 5041 c0 -4 7 -48 15 -99 12 -71 23 -104 44 -136 47 -68 54
-111 36 -216 -9 -50 -20 -102 -25 -115 -11 -30 4 -603 25 -945 44 -698 124
-1328 242 -1903 l37 -177 75 0 c92 0 141 -13 181 -47 44 -37 63 -80 63 -143 0
-76 -33 -127 -123 -186 -39 -26 -70 -51 -70 -56 0 -5 18 -44 40 -87 91 -183
254 -383 439 -542 64 -55 118 -99 122 -99 4 0 58 34 120 76 646 431 1053 1102
1134 1872 70 661 -129 1336 -552 1862 -88 111 -276 298 -383 384 -334 266
-738 452 -1141 525 -125 23 -279 40 -279 32z"/>
<path d="M2536 4883 c-16 -106 -21 -122 -51 -159 l-34 -41 11 -69 c6 -38 16
-74 23 -79 10 -8 10 -89 4 -370 -23 -998 -129 -1948 -302 -2717 l-42 -187
-138 -3 -139 -3 116 -79 c64 -44 116 -80 116 -81 0 -1 -9 -31 -21 -66 -46
-145 -162 -348 -280 -492 -81 -98 -266 -283 -358 -355 -46 -37 -95 -77 -110
-89 l-26 -23 365 3 365 2 6 51 c14 115 62 207 150 288 210 195 527 195 737 1
88 -82 152 -208 152 -302 0 -19 6 -36 13 -38 6 -3 172 -4 367 -3 l355 3 -75
57 c-303 229 -563 548 -673 826 -58 146 -64 127 69 218 l116 79 -139 3 -139 3
-41 187 c-175 783 -278 1707 -302 2707 -7 299 -7 371 4 377 7 4 16 33 20 64 4
32 9 62 11 69 3 6 -11 32 -30 57 -31 41 -37 58 -52 162 -10 64 -21 116 -24
116 -4 0 -15 -53 -24 -117z m90 -3176 c15 -15 37 -84 73 -227 28 -113 51 -208
51 -212 0 -13 -380 -10 -380 3 0 32 106 417 119 433 35 41 99 43 137 3z"/>
</g>
</svg>
